<svg xmlns="http://www.w3.org/2000/svg" viewBox="0 0 200 200" width="200" height="200"><style>tspan { white-space:pre }</style><path fill="#ab4141" d="M60.92 116.35L60.92 112.45L59.41 112.45Q54.49 112.45 53.11 114.21Q51.85 115.97 51.85 119.88L51.85 121.77Q52.6 121.39 53.11 120.76L62.94 130.59Q62.18 136.51 58.65 139.54Q55.12 142.56 50.34 142.56Q45.55 142.56 40.51 139.16Q35.47 142.56 30.68 142.56Q23.88 142.56 18.21 136.26Q12.54 129.83 11.65 123.03L15.18 120.76Q15.81 121.9 17.95 121.9Q20.1 121.9 21.23 120.26Q22.49 118.49 22.62 116.86Q22.87 115.22 22.87 112.45L21.48 112.45L15.18 104.89L15.18 95.69Q20.35 95.69 22.49 96.07L22.49 72.13L18.96 72.13L12.66 64.57L12.66 46.8L57.9 46.8Q75.16 46.8 84.99 56.75Q94.81 66.71 94.81 82.08Q94.81 97.45 85.24 104.89Q89.4 111.31 89.4 120.01L89.4 121.77Q90.28 121.39 90.78 120.76L94.18 123.03L100.48 130.59Q99.85 136.89 95.82 139.79Q91.79 142.56 83.22 142.56Q74.65 142.56 67.72 135.25Q60.92 127.82 60.92 116.35ZM67.72 99.85Q69.24 98.96 70.87 96.82Q72.13 96.82 72.64 96.95Q84.73 91.4 84.73 73.89Q84.73 67.72 82.59 63.31Q80.58 58.77 77.68 56.38Q74.91 53.86 69.49 52.09Q64.2 50.33 57.01 50.33L16.19 50.33L16.19 61.04L26.27 61.04L26.27 97.07Q28.16 98.08 29.55 99.85Q30.81 99.09 32.57 96.82L35.85 96.82Q37.48 99.09 39 99.85Q41.77 96.19 46.93 95.81Q48.82 95.69 54.12 95.69Q59.41 95.69 62.43 96.44Q65.46 97.07 67.72 99.85ZM56.51 98.71L49.96 98.71Q47.69 98.71 46.43 98.96Q45.3 99.09 43.41 100.48Q41.52 101.86 40 104.63Q36.85 104 34.21 100.22Q31.56 103.63 28.41 104.63Q26.9 101.86 25.01 100.48Q23.12 99.09 21.86 98.96Q20.73 98.71 18.58 98.71L18.58 101.86Q26.65 101.86 26.65 112.45Q26.65 116.35 26.14 118.87Q25.77 121.27 23.75 123.41Q21.73 125.42 17.95 125.42L16.06 124.92Q18.58 131.22 24 131.22Q29.42 131.22 33.83 127.31L34.59 127.31Q39 131.22 44.29 131.22Q49.71 131.22 52.48 124.92Q51.85 125.42 49.71 125.42Q47.56 125.42 45.67 124.42Q43.91 123.28 43.15 121.27Q41.89 117.86 41.89 112.45Q41.89 101.86 49.96 101.86L56.51 101.86Q64.7 101.86 64.7 112.45L64.7 115.72Q64.7 131.22 77.8 131.22Q84.48 131.22 87.13 128.95Q89.65 126.94 90.03 124.92Q89.27 125.42 88.14 125.42Q82.97 125.42 81.33 121.9Q79.69 118.37 79.69 111.94Q79.69 102.62 72.26 100.22Q69.87 103.63 66.72 104.63Q65.08 101.86 63.19 100.48Q61.3 99.09 60.04 98.96Q58.78 98.71 56.51 98.71ZM42.4 92.03L42.4 61.04L50.34 61.04Q68.35 61.04 68.35 75.02Q68.35 82.46 63.94 87.25Q59.66 92.03 50.46 92.03L42.4 92.03ZM56.26 72L52.23 72L52.23 88.38Q64.83 87.37 64.83 75.02L64.7 73.13Q62.31 72 56.26 72ZM153.15 116.35L153.15 112.45L151.64 112.45Q146.73 112.45 145.34 114.21Q144.08 115.97 144.08 119.88L144.08 121.77Q144.84 121.39 145.34 120.76L155.17 130.59Q154.41 136.51 150.88 139.54Q147.36 142.56 142.57 142.56Q137.78 142.56 132.74 139.16Q127.7 142.56 122.91 142.56Q116.11 142.56 110.44 136.26Q104.77 129.83 103.89 123.03L107.41 120.76Q108.04 121.9 110.19 121.9Q112.33 121.9 113.46 120.26Q114.72 118.49 114.85 116.86Q115.1 115.22 115.1 112.45L113.71 112.45L107.41 104.89L107.41 95.69Q112.58 95.69 114.72 96.07L114.72 72.13L113.71 72.13L107.41 64.57L107.41 46.8L143.2 46.8L149.5 54.36L149.5 69.73L152.65 66.08L150.63 64.57L150.63 46.8L183.39 46.8L189.69 54.36L189.69 72.13L183.14 72.13L164.24 94.18L167.14 97.33Q174.07 98.96 177.85 105.52Q181.63 111.94 181.63 120.01L181.63 121.77Q182.51 121.39 183.01 120.76L186.42 123.03L192.72 130.59Q192.09 136.89 188.05 139.79Q184.02 142.56 175.45 142.56Q166.89 142.56 159.96 135.25Q153.15 127.82 153.15 116.35ZM121.78 99.85Q123.04 99.09 124.8 96.82L128.08 96.82Q129.72 99.09 131.23 99.85Q134 96.19 139.17 95.81Q141.06 95.69 145.34 95.69Q149.75 95.69 151.77 95.81Q157.18 96.19 159.96 99.85Q161.09 99.34 162.6 97.45L152.77 87.25L175.08 61.04L179.86 61.04L179.86 50.33L154.03 50.33L154.03 61.04L161.47 61.04L139.04 86.99L134.38 86.99L134.38 61.04L139.67 61.04L139.67 50.33L110.94 50.33L110.94 61.04L118.5 61.04L118.5 97.07Q120.39 98.08 121.78 99.85ZM148.74 98.71L142.19 98.71Q139.92 98.71 138.66 98.96Q137.53 99.09 135.64 100.48Q133.75 101.86 132.24 104.63Q129.09 104 126.44 100.22Q123.79 103.63 120.64 104.63Q119.13 101.86 117.24 100.48Q115.35 99.09 114.09 98.96Q112.96 98.71 110.82 98.71L110.82 101.86Q118.88 101.86 118.88 112.45Q118.88 116.35 118.38 118.87Q118 121.27 115.98 123.41Q113.97 125.42 110.19 125.42L108.3 124.92Q110.82 131.22 116.23 131.22Q121.65 131.22 126.06 127.31L126.82 127.31Q131.23 131.22 136.52 131.22Q141.94 131.22 144.71 124.92Q144.08 125.42 141.94 125.42Q139.8 125.42 137.91 124.42Q136.14 123.28 135.39 121.27Q134.13 117.86 134.13 112.45Q134.13 101.86 142.19 101.86L148.74 101.86Q156.93 101.86 156.93 112.45L156.93 115.72Q156.93 131.22 170.04 131.22Q176.71 131.22 179.36 128.95Q181.88 126.94 182.26 124.92Q181.5 125.42 180.37 125.42Q175.2 125.42 173.56 121.9Q171.93 118.37 171.93 111.94Q171.93 102.62 164.49 100.22Q162.1 103.63 158.95 104.63Q157.31 101.86 155.42 100.48Q153.53 99.09 152.27 98.96Q151.01 98.71 148.74 98.71Z" /></svg>